<svg id="Слой_1" xmlns="http://www.w3.org/2000/svg" width="222.2" height="60.3" viewBox="0 0 222.2 60.3"><style>.st0{fill:#b13038}</style><path class="st0" d="M70.8 55.7V16.1h-4.6V9.9h29.7c1.6 0 2.8.4 3.5 1.1.7.7 1.1 1.9 1.1 3.5v6.3h-6.6v-3.2c0-1-.5-1.6-1.6-1.6H78v15.8h17.7v6.1H78v14.6c0 1 .5 1.6 1.6 1.6h14.8c1 0 1.6-.5 1.6-1.6v-3.2h6.5v6.3c0 1.6-.4 2.8-1.1 3.5s-1.9 1.1-3.5 1.1H75.5c-1.6 0-2.8-.4-3.5-1.1-.8-.6-1.2-1.8-1.2-3.4zM108.2 34.7c0-7 2.4-12.9 7.2-17.7 4.8-4.7 10.8-7.1 17.8-7.1s13 2.4 17.8 7.2 7.2 10.7 7.2 17.7c0 7.2-2.4 13.2-7.2 18.1s-10.8 7.4-17.8 7.4-13-2.5-17.8-7.4c-4.8-5-7.2-11-7.2-18.2zm7.2 0c0 5.3 1.7 9.8 5.2 13.5 3.4 3.7 7.7 5.5 12.6 5.5s9.2-1.8 12.7-5.5 5.2-8.2 5.2-13.5c0-5.2-1.7-9.6-5.2-13.1s-7.7-5.3-12.7-5.3-9.2 1.8-12.6 5.3c-3.5 3.6-5.2 7.9-5.2 13.1zM164 60.3v-6.1h3.1c1 0 1.6-.5 1.6-1.6V9.9h6.5l22.4 31.9 4.2 6.8h.1c-.3-2.7-.5-5-.5-6.8V14.5c0-1.6.4-2.8 1.1-3.5.7-.7 1.9-1.1 3.5-1.1h7.1V16H210c-1 0-1.6.5-1.6 1.6v42.6H202l-22.5-31.9-4.1-6.8h-.1c.3 2.7.4 5 .4 6.8v27.3c0 1.6-.4 2.8-1.1 3.5-.7.7-1.9 1.1-3.5 1.1H164v.1z"/><g><path class="st0" d="M217.3 5.1c-.6-.6-.8-1.3-.8-2.1s.3-1.5.8-2.1c.6-.6 1.2-.9 2-.9s1.5.3 2.1.9.8 1.3.8 2.1-.3 1.5-.8 2.1-1.3.9-2.1.9c-.7-.1-1.4-.4-2-.9zm.4-3.9c-.4.5-.7 1-.7 1.7s.2 1.2.7 1.7 1 .7 1.6.7c.7 0 1.2-.2 1.6-.7s.7-1 .7-1.7-.2-1.2-.7-1.7-1-.7-1.6-.7c-.6.1-1.1.3-1.6.7zm.7 3.3V1.9h-.3v-.5h1.5c.3 0 .5.1.7.3s.3.4.3.7c0 .2-.1.4-.2.5-.1.1-.2.2-.4.3.1 0 .1.1.2.2l.3.6c0 .1.1.1.2.1h.1v.4h-.6c-.1 0-.1-.1-.2-.2l-.4-.8c-.1-.1-.1-.2-.3-.2h-.3v1.2h-.6zm.5-1.6h.5c.2 0 .3 0 .4-.1.1-.1.1-.2.1-.4s0-.3-.1-.4-.2-.1-.4-.1h-.5v1z"/></g><g><path class="st0" d="M26.5 21.6L13.7 26 3.4 17.1l12.9-4.5 12.9-4.3 10.2 8.9-2.6 13.4z"/><path class="st0" d="M38.5 34.1L41.1 21l10 8.8-2.6 13.1-12.6 4.3-2.6 13.1-10.1-8.8 2.6-13.1z"/><path class="st0" d="M0 32.8l2.6-13.3 10.3 8.9 12.8-4.3V24l10.2 8.9-12.8 4.4v.1-.1l-12.9 4.5z"/></g></svg>